{
.appVersion = "1075";
DisplayStrings = (
"SPEND A \012MILDER MOMENT \012   \012THEY RE NOT FOR EVERYBODY BUT THEY COULD BE FOR YOU"
);
date = "2017-11-14 14:59:33 +0000";
familyName = "playboy-epais";
fontMaster = (
{
ascender = 800;
capHeight = 700;
descender = -200;
id = "8163A9A7-FEB5-4584-B00B-7D9977804228";
visible = 1;
xHeight = 500;
}
);
glyphs = (
{
glyphname = A;
lastChange = "2017-11-28 13:29:17 +0000";
layers = (
{
guideLines = (
{
angle = 270;
position = "{118, 33}";
},
{
angle = 270;
position = "{197, 33}";
}
);
layerId = "8163A9A7-FEB5-4584-B00B-7D9977804228";
paths = (
{
closed = 1;
nodes = (
"295 146 OFFCURVE",
"333 0 OFFCURVE",
"333 0 CURVE SMOOTH",
"493 -2 LINE",
"493 -2 OFFCURVE",
"385 416 OFFCURVE",
"345 474 CURVE SMOOTH",
"311 524 OFFCURVE",
"285 501 OFFCURVE",
"262 547 CURVE SMOOTH",
"249 573 OFFCURVE",
"215 639 OFFCURVE",
"211 647 CURVE SMOOTH",
"200 668 OFFCURVE",
"200 684 OFFCURVE",
"200 700 CURVE",
"40 700 LINE",
"40 700 OFFCURVE",
"40 670 OFFCURVE",
"51 649 CURVE SMOOTH",
"55 641 OFFCURVE",
"89 575 OFFCURVE",
"102 549 CURVE SMOOTH",
"126 503 OFFCURVE",
"151 526 OFFCURVE",
"185 476 CURVE SMOOTH",
"194 463 OFFCURVE",
"207 431 OFFCURVE",
"221 389 CURVE",
"221 389 LINE",
"80 0 LINE",
"159 0 LINE",
"256 277 LINE"
);
}
);
width = 533;
},
{
associatedMasterId = "8163A9A7-FEB5-4584-B00B-7D9977804228";
guideLines = (
{
angle = 270;
position = "{118, 33}";
},
{
angle = 270;
position = "{197, 33}";
}
);
layerId = "34935DBA-888C-4163-84A4-84D17134420F";
name = "Nov 28 17, 14:28";
paths = (
{
closed = 1;
nodes = (
"497 660 OFFCURVE",
"507 511 OFFCURVE",
"480 461 CURVE SMOOTH",
"463 430 OFFCURVE",
"426 402 OFFCURVE",
"409 380 CURVE SMOOTH",
"373 334 OFFCURVE",
"415 304 OFFCURVE",
"453 261 CURVE SMOOTH",
"491 218 OFFCURVE",
"493 180 OFFCURVE",
"495 104 CURVE",
"495 0 LINE",
"331 0 LINE",
"331 104 LINE",
"329 180 OFFCURVE",
"327 218 OFFCURVE",
"289 261 CURVE SMOOTH",
"251 304 OFFCURVE",
"209 334 OFFCURVE",
"245 380 CURVE SMOOTH",
"262 402 OFFCURVE",
"299 430 OFFCURVE",
"316 461 CURVE SMOOTH",
"343 511 OFFCURVE",
"333 660 OFFCURVE",
"334 700 CURVE",
"498 700 LINE"
);
}
);
visible = 1;
width = 536;
}
);
unicode = 0041;
},
{
glyphname = B;
lastChange = "2017-11-26 11:42:46 +0000";
layers = (
{
layerId = "8163A9A7-FEB5-4584-B00B-7D9977804228";
paths = (
{
closed = 1;
nodes = (
"166 406 OFFCURVE",
"172 428 OFFCURVE",
"218 452 CURVE SMOOTH",
"252 470 OFFCURVE",
"355 535 OFFCURVE",
"365 541 CURVE SMOOTH",
"468 603 OFFCURVE",
"421 485 OFFCURVE",
"370 416 CURVE",
"320 335 OFFCURVE",
"446 329 OFFCURVE",
"460 291 CURVE SMOOTH",
"468 270 OFFCURVE",
"465 265 OFFCURVE",
"430 234 CURVE SMOOTH",
"283 104 OFFCURVE",
"159 150 OFFCURVE",
"45 129 CURVE",
"72 -4 LINE",
"187 18 OFFCURVE",
"319 -32 OFFCURVE",
"457 103 CURVE SMOOTH",
"585 228 OFFCURVE",
"638 280 OFFCURVE",
"512 312 CURVE SMOOTH",
"446 329 OFFCURVE",
"421 373 OFFCURVE",
"452 436 CURVE SMOOTH",
"475 482 OFFCURVE",
"575 656 OFFCURVE",
"472 703 CURVE SMOOTH",
"439 718 OFFCURVE",
"411 705 OFFCURVE",
"392 696 CURVE SMOOTH",
"362 682 OFFCURVE",
"106 517 OFFCURVE",
"98 513 CURVE SMOOTH",
"57 493 OFFCURVE",
"43 413 OFFCURVE",
"78 386 CURVE SMOOTH",
"111 360 OFFCURVE",
"182 319 OFFCURVE",
"207 282 CURVE",
"259 214 LINE",
"371 266 LINE",
"320 335 LINE",
"294 371 OFFCURVE",
"265 420 OFFCURVE",
"202 411 CURVE SMOOTH"
);
}
);
width = 629;
},
{
associatedMasterId = "8163A9A7-FEB5-4584-B00B-7D9977804228";
backgroundImage = {
crop = "{{0, 0}, {536, 738}}";
imagePath = "../Desktop/G _ B.png";
locked = "1";
transform = "{3.1, 0, 0, 3.1, -275, -508}";
};
layerId = "643D18EF-F2FF-4806-9376-B0C3F55AB0EC";
name = "Nov 25 17, 17:00";
paths = (
{
closed = 1;
nodes = (
"-612 48 LINE",
"-613 134 LINE",
"-613 203 OFFCURVE",
"-597 241 OFFCURVE",
"-597 283 CURVE SMOOTH",
"-597 309 OFFCURVE",
"-642 359 OFFCURVE",
"-661 388 CURVE SMOOTH",
"-756 534 OFFCURVE",
"-692 643 OFFCURVE",
"-692 748 CURVE",
"-613 748 LINE",
"-613 643 OFFCURVE",
"-677 534 OFFCURVE",
"-582 388 CURVE SMOOTH",
"-563 359 OFFCURVE",
"-518 309 OFFCURVE",
"-518 283 CURVE SMOOTH",
"-518 241 OFFCURVE",
"-534 203 OFFCURVE",
"-534 134 CURVE",
"-534 127 OFFCURVE",
"-533 117 OFFCURVE",
"-524 122 CURVE SMOOTH",
"-515 127 OFFCURVE",
"-367 154 OFFCURVE",
"-334 152 CURVE",
"-334 76 LINE",
"-372 76 OFFCURVE",
"-484 48 OFFCURVE",
"-534 48 CURVE"
);
},
{
closed = 0;
nodes = (
"266 711 LINE",
"275 705 OFFCURVE",
"360 529 OFFCURVE",
"363 505 CURVE SMOOTH",
"366 481 OFFCURVE",
"357 459 OFFCURVE",
"372 444 CURVE SMOOTH",
"387 429 OFFCURVE",
"453 438 OFFCURVE",
"472 444 CURVE SMOOTH",
"538 465 OFFCURVE",
"540 456 OFFCURVE",
"553 444 CURVE SMOOTH",
"575 424 OFFCURVE",
"553 326 OFFCURVE",
"540 259 CURVE SMOOTH",
"507 88 OFFCURVE",
"382 57 OFFCURVE",
"308 -18 CURVE",
"252 38 LINE",
"326 112 OFFCURVE",
"443 143 OFFCURVE",
"484 315 CURVE SMOOTH",
"494 357 OFFCURVE",
"502 381 OFFCURVE",
"480 401 CURVE SMOOTH",
"467 413 OFFCURVE",
"465 422 OFFCURVE",
"399 401 CURVE SMOOTH",
"380 395 OFFCURVE",
"314 386 OFFCURVE",
"299 401 CURVE SMOOTH",
"284 416 OFFCURVE",
"293 438 OFFCURVE",
"290 462 CURVE SMOOTH",
"287 486 OFFCURVE",
"202 662 OFFCURVE",
"193 668 CURVE SMOOTH"
);
}
);
width = 600;
},
{
associatedMasterId = "8163A9A7-FEB5-4584-B00B-7D9977804228";
layerId = "A221B940-47A1-4FF1-A28C-3FF0835F1742";
name = "Nov 26 17, 12:39";
paths = (
{
closed = 1;
nodes = (
"138 406 OFFCURVE",
"144 428 OFFCURVE",
"190 452 CURVE SMOOTH",
"224 470 OFFCURVE",
"327 535 OFFCURVE",
"337 541 CURVE SMOOTH",
"440 603 OFFCURVE",
"393 485 OFFCURVE",
"342 416 CURVE",
"292 335 OFFCURVE",
"418 329 OFFCURVE",
"432 291 CURVE SMOOTH",
"440 270 OFFCURVE",
"437 265 OFFCURVE",
"402 234 CURVE SMOOTH",
"255 104 OFFCURVE",
"131 150 OFFCURVE",
"17 129 CURVE",
"44 -4 LINE",
"159 18 OFFCURVE",
"291 -32 OFFCURVE",
"429 103 CURVE SMOOTH",
"557 228 OFFCURVE",
"610 280 OFFCURVE",
"484 312 CURVE SMOOTH",
"418 329 OFFCURVE",
"393 373 OFFCURVE",
"424 436 CURVE SMOOTH",
"447 482 OFFCURVE",
"547 656 OFFCURVE",
"444 703 CURVE SMOOTH",
"411 718 OFFCURVE",
"383 705 OFFCURVE",
"364 696 CURVE SMOOTH",
"334 682 OFFCURVE",
"78 517 OFFCURVE",
"70 513 CURVE SMOOTH",
"29 493 OFFCURVE",
"15 413 OFFCURVE",
"50 386 CURVE SMOOTH",
"83 360 OFFCURVE",
"154 319 OFFCURVE",
"179 282 CURVE",
"231 214 LINE",
"343 266 LINE",
"292 335 LINE",
"266 371 OFFCURVE",
"237 420 OFFCURVE",
"174 411 CURVE SMOOTH"
);
}
);
width = 621;
}
);
unicode = 0042;
},
{
glyphname = C;
lastChange = "2017-11-26 15:06:04 +0000";
layers = (
{
layerId = "8163A9A7-FEB5-4584-B00B-7D9977804228";
paths = (
{
closed = 1;
nodes = (
"408 648 OFFCURVE",
"439 705 OFFCURVE",
"292 705 CURVE SMOOTH",
"183 705 OFFCURVE",
"78 600 OFFCURVE",
"71 480 CURVE",
"71 469 OFFCURVE",
"71 458 OFFCURVE",
"70 448 CURVE SMOOTH",
"58 329 OFFCURVE",
"3 205 OFFCURVE",
"108 42 CURVE",
"175 -49 OFFCURVE",
"436 -7 OFFCURVE",
"511 132 CURVE",
"511 132 OFFCURVE",
"494 203 OFFCURVE",
"444 245 CURVE",
"407 156 OFFCURVE",
"347 -12 OFFCURVE",
"263 102 CURVE",
"199 218 OFFCURVE",
"224 343 OFFCURVE",
"236 427 CURVE SMOOTH",
"249 516 OFFCURVE",
"267 648 OFFCURVE",
"312 648 CURVE SMOOTH",
"416 648 OFFCURVE",
"432 508 OFFCURVE",
"509 484 CURVE",
"493 617 LINE"
);
}
);
width = 556;
},
{
associatedMasterId = "8163A9A7-FEB5-4584-B00B-7D9977804228";
layerId = "A172356B-3366-4005-8769-B52C76A22EDD";
name = "Nov 26 17, 12:50";
paths = (
{
closed = 1;
nodes = (
"403 655 OFFCURVE",
"434 712 OFFCURVE",
"287 712 CURVE SMOOTH",
"178 712 OFFCURVE",
"73 607 OFFCURVE",
"66 487 CURVE",
"66 476 OFFCURVE",
"66 465 OFFCURVE",
"65 455 CURVE SMOOTH",
"54 336 OFFCURVE",
"-2 212 OFFCURVE",
"103 49 CURVE",
"170 -42 OFFCURVE",
"431 0 OFFCURVE",
"506 139 CURVE",
"506 139 OFFCURVE",
"518 170 OFFCURVE",
"468 212 CURVE",
"419 94 OFFCURVE",
"209 72 OFFCURVE",
"161 137 CURVE",
"86 253 OFFCURVE",
"126 341 OFFCURVE",
"134 425 CURVE SMOOTH",
"135 432 OFFCURVE",
"135 440 OFFCURVE",
"135 448 CURVE",
"140 533 OFFCURVE",
"214 608 OFFCURVE",
"292 608 CURVE SMOOTH",
"396 608 OFFCURVE",
"411 544 OFFCURVE",
"488 520 CURVE",
"488 624 LINE"
);
},
{
closed = 1;
nodes = (
"465 513 LINE SMOOTH",
"452 491 OFFCURVE",
"414 504 OFFCURVE",
"417 519 CURVE",
"421 538 OFFCURVE",
"442 569 OFFCURVE",
"442 596 CURVE",
"442 613 OFFCURVE",
"441 679 OFFCURVE",
"372 681 CURVE SMOOTH",
"282 684 OFFCURVE",
"226 569 OFFCURVE",
"226 358 CURVE SMOOTH",
"226 202 OFFCURVE",
"257 64 OFFCURVE",
"367 64 CURVE",
"413 64 OFFCURVE",
"482 123 OFFCURVE",
"489 189 CURVE SMOOTH",
"490 199 OFFCURVE",
"490 220 OFFCURVE",
"490 227 CURVE SMOOTH",
"490 242 OFFCURVE",
"502 236 OFFCURVE",
"552 223 CURVE",
"563 220 OFFCURVE",
"574 220 OFFCURVE",
"570 201 CURVE SMOOTH",
"566 182 OFFCURVE",
"538 0 OFFCURVE",
"354 0 CURVE",
"226 0 OFFCURVE",
"54 123 OFFCURVE",
"53 361 CURVE SMOOTH",
"52 616 OFFCURVE",
"265 737 OFFCURVE",
"354 737 CURVE",
"425 737 OFFCURVE",
"437 725 OFFCURVE",
"461 712 CURVE SMOOTH",
"485 699 OFFCURVE",
"493 698 OFFCURVE",
"502 703 CURVE",
"516 715 OFFCURVE",
"526 720 OFFCURVE",
"532 724 CURVE",
"544 731 OFFCURVE",
"571 719 OFFCURVE",
"571 700 CURVE SMOOTH",
"571 694 OFFCURVE",
"567 682 OFFCURVE",
"557 664 CURVE"
);
}
);
width = 547;
}
);
unicode = 0043;
},
{
glyphname = D;
lastChange = "2017-11-28 10:38:56 +0000";
layers = (
{
layerId = "8163A9A7-FEB5-4584-B00B-7D9977804228";
paths = (
{
closed = 1;
nodes = (
"252 0 LINE",
"252 102 OFFCURVE",
"269 148 OFFCURVE",
"236 205 CURVE SMOOTH",
"203 262 OFFCURVE",
"205 304 OFFCURVE",
"229 402 CURVE SMOOTH",
"253 500 OFFCURVE",
"364 614 OFFCURVE",
"364 700 CURVE",
"198 700 LINE",
"198 614 OFFCURVE",
"88 500 OFFCURVE",
"64 402 CURVE SMOOTH",
"40 304 OFFCURVE",
"37 262 OFFCURVE",
"70 205 CURVE SMOOTH",
"103 148 OFFCURVE",
"80 136 OFFCURVE",
"64 0 CURVE"
);
},
{
closed = 1;
nodes = (
"259 1 OFFCURVE",
"339 -17 OFFCURVE",
"398 111 CURVE",
"410 135 OFFCURVE",
"452 245 OFFCURVE",
"466 295 CURVE",
"480 337 OFFCURVE",
"505 463 OFFCURVE",
"505 491 CURVE SMOOTH",
"505 514 OFFCURVE",
"493 528 OFFCURVE",
"456 584 CURVE SMOOTH",
"435 616 OFFCURVE",
"400 665 OFFCURVE",
"364 700 CURVE",
"206 700 LINE",
"242 665 OFFCURVE",
"349 550 OFFCURVE",
"377 524 CURVE SMOOTH",
"426 479 OFFCURVE",
"426 454 OFFCURVE",
"426 431 CURVE SMOOTH",
"426 403 OFFCURVE",
"388 256 OFFCURVE",
"374 214 CURVE",
"343 136 LINE",
"300 54 OFFCURVE",
"217 59 OFFCURVE",
"206 59 CURVE",
"220 0 LINE"
);
},
{
closed = 0;
nodes = (
"400 434 LINE SMOOTH"
);
},
{
closed = 0;
nodes = (
"496 434 LINE SMOOTH"
);
}
);
width = 620;
},
{
associatedMasterId = "8163A9A7-FEB5-4584-B00B-7D9977804228";
backgroundImage = {
crop = "{{0, 0}, {493, 698}}";
imagePath = ../Desktop/D.png;
locked = "1";
transform = "{1.2, 0, 0, 1.2, -273, -5}";
};
layerId = "6D5624C4-3CD3-462B-9201-5EA32E79EE13";
name = "Nov 25 17, 10:43";
paths = (
{
closed = 1;
nodes = (
"150 0 LINE",
"150 102 OFFCURVE",
"175 148 OFFCURVE",
"142 205 CURVE SMOOTH",
"109 262 OFFCURVE",
"115 304 OFFCURVE",
"139 402 CURVE SMOOTH",
"163 500 OFFCURVE",
"203 614 OFFCURVE",
"203 700 CURVE",
"124 700 LINE",
"124 614 OFFCURVE",
"84 500 OFFCURVE",
"60 402 CURVE SMOOTH",
"36 304 OFFCURVE",
"30 262 OFFCURVE",
"63 205 CURVE SMOOTH",
"96 148 OFFCURVE",
"76 136 OFFCURVE",
"60 0 CURVE"
);
},
{
closed = 1;
nodes = (
"163 1 OFFCURVE",
"271 -13 OFFCURVE",
"318 89 CURVE",
"330 113 OFFCURVE",
"372 223 OFFCURVE",
"386 273 CURVE",
"400 315 OFFCURVE",
"425 441 OFFCURVE",
"425 469 CURVE SMOOTH",
"425 492 OFFCURVE",
"425 517 OFFCURVE",
"376 562 CURVE SMOOTH",
"348 588 OFFCURVE",
"286 665 OFFCURVE",
"250 700 CURVE",
"124 700 LINE",
"160 665 OFFCURVE",
"267 550 OFFCURVE",
"295 524 CURVE SMOOTH",
"344 479 OFFCURVE",
"344 454 OFFCURVE",
"344 431 CURVE SMOOTH",
"344 403 OFFCURVE",
"306 256 OFFCURVE",
"292 214 CURVE",
"261 136 LINE",
"218 54 OFFCURVE",
"135 59 OFFCURVE",
"124 59 CURVE",
"124 0 LINE"
);
}
);
width = 533;
},
{
associatedMasterId = "8163A9A7-FEB5-4584-B00B-7D9977804228";
layerId = "B6EC410E-9895-4AB1-A4C6-0562FAD70296";
name = "Nov 26 17, 13:01";
paths = (
{
closed = 1;
nodes = (
"145 0 LINE",
"145 102 OFFCURVE",
"170 148 OFFCURVE",
"137 205 CURVE SMOOTH",
"104 262 OFFCURVE",
"110 304 OFFCURVE",
"134 402 CURVE SMOOTH",
"158 500 OFFCURVE",
"198 614 OFFCURVE",
"198 700 CURVE",
"119 700 LINE",
"119 614 OFFCURVE",
"79 500 OFFCURVE",
"55 402 CURVE SMOOTH",
"31 304 OFFCURVE",
"25 262 OFFCURVE",
"58 205 CURVE SMOOTH",
"91 148 OFFCURVE",
"71 136 OFFCURVE",
"55 0 CURVE"
);
},
{
closed = 1;
nodes = (
"158 1 OFFCURVE",
"266 -13 OFFCURVE",
"313 89 CURVE",
"325 113 OFFCURVE",
"367 223 OFFCURVE",
"381 273 CURVE",
"395 315 OFFCURVE",
"420 441 OFFCURVE",
"420 469 CURVE SMOOTH",
"420 492 OFFCURVE",
"420 517 OFFCURVE",
"371 562 CURVE SMOOTH",
"343 588 OFFCURVE",
"281 665 OFFCURVE",
"245 700 CURVE",
"119 700 LINE",
"155 665 OFFCURVE",
"262 550 OFFCURVE",
"290 524 CURVE SMOOTH",
"339 479 OFFCURVE",
"339 454 OFFCURVE",
"339 431 CURVE SMOOTH",
"339 403 OFFCURVE",
"301 256 OFFCURVE",
"287 214 CURVE",
"256 136 LINE",
"213 54 OFFCURVE",
"130 59 OFFCURVE",
"119 59 CURVE",
"119 0 LINE"
);
}
);
visible = 1;
width = 460;
}
);
unicode = 0044;
},
{
glyphname = E;
lastChange = "2017-11-26 15:08:56 +0000";
layers = (
{
layerId = "8163A9A7-FEB5-4584-B00B-7D9977804228";
paths = (
{
closed = 1;
nodes = (
"493 236 LINE",
"461 212 OFFCURVE",
"452 153 OFFCURVE",
"377 79 CURVE",
"343 50 OFFCURVE",
"281 26 OFFCURVE",
"252 65 CURVE SMOOTH",
"177 181 OFFCURVE",
"217 429 OFFCURVE",
"229 513 CURVE SMOOTH",
"230 520 OFFCURVE",
"230 528 OFFCURVE",
"230 536 CURVE",
"235 621 OFFCURVE",
"294 661 OFFCURVE",
"372 661 CURVE",
"462 661 OFFCURVE",
"439 610 OFFCURVE",
"516 586 CURVE",
"594 638 LINE",
"485 700 OFFCURVE",
"434 713 OFFCURVE",
"287 713 CURVE SMOOTH",
"178 713 OFFCURVE",
"73 608 OFFCURVE",
"66 488 CURVE",
"66 477 OFFCURVE",
"66 466 OFFCURVE",
"65 456 CURVE SMOOTH",
"53 337 OFFCURVE",
"-2 213 OFFCURVE",
"103 50 CURVE",
"153 -18 OFFCURVE",
"336 -38 OFFCURVE",
"400 5 CURVE",
"459 42 OFFCURVE",
"540 144 OFFCURVE",
"561 167 CURVE"
);
},
{
closed = 1;
nodes = (
"485 480 LINE",
"397 462 LINE",
"384 460 OFFCURVE",
"372 469 OFFCURVE",
"358 479 CURVE SMOOTH",
"344 489 OFFCURVE",
"250 561 OFFCURVE",
"232 584 CURVE",
"184 534 LINE",
"336 420 LINE",
"353 407 OFFCURVE",
"364 396 OFFCURVE",
"388 400 CURVE",
"493 426 LINE"
);
},
{
closed = 0;
nodes = (
"56 401 LINE SMOOTH"
);
},
{
closed = 0;
nodes = (
"222 380 LINE SMOOTH"
);
}
);
width = 634;
}
);
unicode = 0045;
},
{
glyphname = F;
lastChange = "2017-11-28 10:38:25 +0000";
layers = (
{
layerId = "8163A9A7-FEB5-4584-B00B-7D9977804228";
paths = (
{
closed = 1;
nodes = (
"348 274 OFFCURVE",
"293 165 OFFCURVE",
"285 151 CURVE",
"300 113 OFFCURVE",
"300 48 OFFCURVE",
"299 0 CURVE",
"138 0 LINE",
"140 95 OFFCURVE",
"106 189 OFFCURVE",
"86 227 CURVE SMOOTH",
"65 267 OFFCURVE",
"20 314 OFFCURVE",
"62 378 CURVE SMOOTH",
"124 473 OFFCURVE",
"204 643 OFFCURVE",
"201 700 CURVE",
"362 700 LINE",
"365 647 OFFCURVE",
"281 469 OFFCURVE",
"221 378 CURVE SMOOTH",
"179 314 OFFCURVE",
"224 267 OFFCURVE",
"245 227 CURVE",
"248 222 LINE",
"258 239 OFFCURVE",
"353 369 OFFCURVE",
"398 387 CURVE",
"397 310 LINE"
);
},
{
closed = 0;
nodes = (
"42 334 LINE SMOOTH"
);
},
{
closed = 0;
nodes = (
"208 313 LINE SMOOTH"
);
}
);
width = 435;
},
{
associatedMasterId = "8163A9A7-FEB5-4584-B00B-7D9977804228";
layerId = "0D4E5833-E7C4-4738-B756-EE7F4C556990";
name = "Nov 26 17, 16:14";
paths = (
{
closed = 1;
nodes = (
"257 272 OFFCURVE",
"195 163 OFFCURVE",
"187 149 CURVE",
"202 111 OFFCURVE",
"208 48 OFFCURVE",
"207 0 CURVE",
"128 0 LINE",
"130 95 OFFCURVE",
"96 189 OFFCURVE",
"76 227 CURVE SMOOTH",
"55 267 OFFCURVE",
"10 314 OFFCURVE",
"52 378 CURVE SMOOTH",
"114 473 OFFCURVE",
"194 643 OFFCURVE",
"191 700 CURVE",
"270 700 LINE",
"273 647 OFFCURVE",
"189 469 OFFCURVE",
"129 378 CURVE SMOOTH",
"87 314 OFFCURVE",
"132 267 OFFCURVE",
"153 227 CURVE",
"156 222 LINE",
"166 239 OFFCURVE",
"261 369 OFFCURVE",
"306 387 CURVE",
"306 308 LINE"
);
}
);
visible = 1;
width = 341;
}
);
unicode = 0046;
},
{
glyphname = G;
lastChange = "2017-11-26 15:13:19 +0000";
layers = (
{
layerId = "8163A9A7-FEB5-4584-B00B-7D9977804228";
paths = (
{
closed = 1;
nodes = (
"273 206 OFFCURVE",
"263 284 OFFCURVE",
"227 356 CURVE SMOOTH",
"224 362 OFFCURVE",
"221 369 OFFCURVE",
"217 376 CURVE",
"181 447 OFFCURVE",
"206 543 OFFCURVE",
"270 580 CURVE",
"348 630 OFFCURVE",
"397 608 OFFCURVE",
"427 579 CURVE",
"472 642 LINE",
"472 642 OFFCURVE",
"440 752 OFFCURVE",
"253 693 CURVE SMOOTH",
"151 661 OFFCURVE",
"51 562 OFFCURVE",
"45 449 CURVE SMOOTH",
"43 409 OFFCURVE",
"48 362 OFFCURVE",
"67 326 CURVE",
"72 316 OFFCURVE",
"78 308 OFFCURVE",
"81 299 CURVE SMOOTH",
"117 192 OFFCURVE",
"97 77 OFFCURVE",
"260 -7 CURVE",
"368 -51 OFFCURVE",
"535 80 OFFCURVE",
"501 161 CURVE",
"496 179 OFFCURVE",
"498 193 OFFCURVE",
"511 206 CURVE SMOOTH",
"524 219 OFFCURVE",
"585 225 OFFCURVE",
"611 227 CURVE",
"602 343 LINE",
"511 326 LINE",
"488 320 OFFCURVE",
"475 311 OFFCURVE",
"468 293 CURVE SMOOTH",
"461 274 OFFCURVE",
"461 233 OFFCURVE",
"455 194 CURVE",
"443 152 OFFCURVE",
"401 130 OFFCURVE",
"363 147 CURVE"
);
},
{
closed = 0;
nodes = (
"85 295 LINE SMOOTH"
);
},
{
closed = 0;
nodes = (
"241 315 LINE"
);
}
);
width = 656;
},
{
associatedMasterId = "8163A9A7-FEB5-4584-B00B-7D9977804228";
layerId = "094CCC76-3994-46B2-AA01-487BF2D2FDB7";
name = "Nov 26 17, 16:11";
paths = (
{
closed = 1;
nodes = (
"199 160 OFFCURVE",
"188 255 OFFCURVE",
"155 333 CURVE SMOOTH",
"152 340 OFFCURVE",
"148 347 OFFCURVE",
"144 354 CURVE",
"106 430 OFFCURVE",
"132 532 OFFCURVE",
"200 571 CURVE",
"283 624 OFFCURVE",
"335 601 OFFCURVE",
"367 570 CURVE",
"415 637 LINE",
"415 637 OFFCURVE",
"409 709 OFFCURVE",
"262 709 CURVE SMOOTH",
"153 709 OFFCURVE",
"48 604 OFFCURVE",
"41 484 CURVE SMOOTH",
"38 441 OFFCURVE",
"45 392 OFFCURVE",
"65 353 CURVE",
"70 343 OFFCURVE",
"76 334 OFFCURVE",
"80 325 CURVE SMOOTH",
"129 216 OFFCURVE",
"96 89 OFFCURVE",
"269 0 CURVE",
"342 -30 OFFCURVE",
"401 36 OFFCURVE",
"440 79 CURVE",
"456 98 OFFCURVE",
"448 118 OFFCURVE",
"446 126 CURVE",
"440 145 OFFCURVE",
"442 160 OFFCURVE",
"456 174 CURVE SMOOTH",
"470 188 OFFCURVE",
"535 194 OFFCURVE",
"562 196 CURVE",
"555 276 LINE",
"458 258 LINE",
"434 252 OFFCURVE",
"420 242 OFFCURVE",
"412 223 CURVE SMOOTH",
"403 203 OFFCURVE",
"410 185 OFFCURVE",
"402 157 CURVE",
"389 113 OFFCURVE",
"362 79 OFFCURVE",
"322 97 CURVE"
);
}
);
visible = 1;
width = 597;
}
);
unicode = 0047;
},
{
glyphname = H;
lastChange = "2017-11-26 15:25:20 +0000";
layers = (
{
guideLines = (
{
angle = 270;
position = "{315, 360}";
},
{
angle = 236.5135;
position = "{-758, 611}";
}
);
layerId = "8163A9A7-FEB5-4584-B00B-7D9977804228";
paths = (
{
closed = 1;
nodes = (
"365 63 LINE",
"384 67 LINE",
"384 110 OFFCURVE",
"500 222 OFFCURVE",
"538 228 CURVE",
"538 353 LINE",
"500 347 OFFCURVE",
"383 234 OFFCURVE",
"374 223 CURVE SMOOTH",
"365 212 OFFCURVE",
"359 212 OFFCURVE",
"348 223 CURVE SMOOTH",
"339 232 OFFCURVE",
"233 347 OFFCURVE",
"195 353 CURVE",
"195 228 LINE",
"233 222 OFFCURVE",
"346 110 OFFCURVE",
"346 67 CURVE"
);
},
{
closed = 1;
nodes = (
"209 0 LINE",
"209 104 LINE SMOOTH",
"209 359 OFFCURVE",
"251 500 OFFCURVE",
"251 643 CURVE SMOOTH",
"251 700 LINE",
"87 700 LINE",
"87 639 LINE SMOOTH",
"87 496 OFFCURVE",
"45 355 OFFCURVE",
"45 100 CURVE SMOOTH",
"45 -1 LINE"
);
},
{
closed = 1;
nodes = (
"670 0 LINE",
"670 58 LINE SMOOTH",
"670 146 OFFCURVE",
"699 178 OFFCURVE",
"689 258 CURVE SMOOTH",
"669 416 OFFCURVE",
"670 672 OFFCURVE",
"670 700 CURVE",
"508 700 LINE",
"508 672 OFFCURVE",
"507 416 OFFCURVE",
"527 258 CURVE SMOOTH",
"537 178 OFFCURVE",
"508 146 OFFCURVE",
"508 58 CURVE SMOOTH",
"508 0 LINE"
);
}
);
width = 736;
},
{
associatedMasterId = "8163A9A7-FEB5-4584-B00B-7D9977804228";
guideLines = (
{
angle = 270;
position = "{246, 360}";
},
{
angle = 236.5135;
position = "{-4, 223}";
}
);
layerId = "4DA8C818-AE0E-4801-A298-74D53BB1A0B5";
name = "Nov 25 17, 11:00";
paths = (
{
closed = 1;
nodes = (
"503 336 OFFCURVE",
"547 306 OFFCURVE",
"525 264 CURVE",
"403 0 LINE",
"323 0 LINE",
"408 177 LINE",
"428 215 OFFCURVE",
"393 200 OFFCURVE",
"283 200 CURVE",
"220 200 OFFCURVE",
"141 215 OFFCURVE",
"161 177 CURVE",
"246 0 LINE",
"167 0 LINE",
"46 268 LINE",
"24 310 OFFCURVE",
"68 340 OFFCURVE",
"122 304 CURVE",
"215 242 OFFCURVE",
"243 268 OFFCURVE",
"243 461 CURVE SMOOTH",
"243 511 OFFCURVE",
"243 700 OFFCURVE",
"243 700 CURVE",
"322 700 LINE",
"322 700 OFFCURVE",
"322 663 OFFCURVE",
"322 461 CURVE SMOOTH",
"322 268 OFFCURVE",
"359 242 OFFCURVE",
"449 300 CURVE"
);
}
);
width = 571;
},
{
associatedMasterId = "8163A9A7-FEB5-4584-B00B-7D9977804228";
guideLines = (
{
angle = 270;
position = "{269, 360}";
},
{
angle = 236.5135;
position = "{-804, 611}";
}
);
layerId = "27DCBC4B-CDD7-4F46-B955-2904CC8BF57C";
name = "Nov 25 17, 12:28";
paths = (
{
closed = 1;
nodes = (
"296 63 LINE",
"315 67 LINE",
"315 110 OFFCURVE",
"454 222 OFFCURVE",
"492 228 CURVE",
"492 307 LINE",
"454 301 OFFCURVE",
"314 188 OFFCURVE",
"305 177 CURVE SMOOTH",
"296 166 OFFCURVE",
"290 166 OFFCURVE",
"279 177 CURVE SMOOTH",
"270 186 OFFCURVE",
"138 301 OFFCURVE",
"100 307 CURVE",
"100 228 LINE",
"138 222 OFFCURVE",
"277 110 OFFCURVE",
"277 67 CURVE"
);
},
{
closed = 1;
nodes = (
"114 0 LINE",
"114 104 LINE SMOOTH",
"114 359 OFFCURVE",
"156 500 OFFCURVE",
"156 643 CURVE SMOOTH",
"156 700 LINE",
"77 700 LINE",
"77 643 LINE SMOOTH",
"77 500 OFFCURVE",
"35 359 OFFCURVE",
"35 104 CURVE SMOOTH",
"35 0 LINE"
);
},
{
closed = 1;
nodes = (
"541 0 LINE",
"541 58 LINE SMOOTH",
"541 146 OFFCURVE",
"570 178 OFFCURVE",
"560 258 CURVE SMOOTH",
"540 416 OFFCURVE",
"541 672 OFFCURVE",
"541 700 CURVE",
"462 700 LINE",
"462 672 OFFCURVE",
"461 416 OFFCURVE",
"481 258 CURVE SMOOTH",
"491 178 OFFCURVE",
"462 146 OFFCURVE",
"462 58 CURVE SMOOTH",
"462 0 LINE"
);
}
);
width = 597;
},
{
associatedMasterId = "8163A9A7-FEB5-4584-B00B-7D9977804228";
guideLines = (
{
angle = 270;
position = "{246, 360}";
},
{
angle = 236.5135;
position = "{-827, 611}";
}
);
layerId = "2C845676-CABE-472F-BCB2-188D8B7FC9B1";
name = "Nov 26 17, 16:17";
paths = (
{
closed = 1;
nodes = (
"296 63 LINE",
"315 67 LINE",
"315 110 OFFCURVE",
"454 222 OFFCURVE",
"492 228 CURVE",
"492 307 LINE",
"454 301 OFFCURVE",
"314 188 OFFCURVE",
"305 177 CURVE SMOOTH",
"296 166 OFFCURVE",
"290 166 OFFCURVE",
"279 177 CURVE SMOOTH",
"270 186 OFFCURVE",
"138 301 OFFCURVE",
"100 307 CURVE",
"100 228 LINE",
"138 222 OFFCURVE",
"277 110 OFFCURVE",
"277 67 CURVE"
);
},
{
closed = 1;
nodes = (
"114 0 LINE",
"114 104 LINE SMOOTH",
"114 359 OFFCURVE",
"156 500 OFFCURVE",
"156 643 CURVE SMOOTH",
"156 700 LINE",
"77 700 LINE",
"77 643 LINE SMOOTH",
"77 500 OFFCURVE",
"35 359 OFFCURVE",
"35 104 CURVE SMOOTH",
"35 0 LINE"
);
},
{
closed = 1;
nodes = (
"541 0 LINE",
"541 58 LINE SMOOTH",
"541 146 OFFCURVE",
"570 178 OFFCURVE",
"560 258 CURVE SMOOTH",
"540 416 OFFCURVE",
"541 672 OFFCURVE",
"541 700 CURVE",
"462 700 LINE",
"462 672 OFFCURVE",
"461 416 OFFCURVE",
"481 258 CURVE SMOOTH",
"491 178 OFFCURVE",
"462 146 OFFCURVE",
"462 58 CURVE SMOOTH",
"462 0 LINE"
);
}
);
visible = 1;
width = 597;
}
);
unicode = 0048;
},
{
glyphname = I;
lastChange = "2017-11-26 14:48:38 +0000";
layers = (
{
layerId = "8163A9A7-FEB5-4584-B00B-7D9977804228";
paths = (
{
closed = 1;
nodes = (
"306 660 OFFCURVE",
"316 511 OFFCURVE",
"289 461 CURVE SMOOTH",
"272 430 OFFCURVE",
"235 402 OFFCURVE",
"218 380 CURVE SMOOTH",
"182 334 OFFCURVE",
"224 304 OFFCURVE",
"262 261 CURVE SMOOTH",
"300 218 OFFCURVE",
"302 180 OFFCURVE",
"304 104 CURVE",
"304 0 LINE",
"140 0 LINE",
"140 104 LINE",
"138 180 OFFCURVE",
"136 218 OFFCURVE",
"98 261 CURVE SMOOTH",
"60 304 OFFCURVE",
"18 334 OFFCURVE",
"54 380 CURVE SMOOTH",
"71 402 OFFCURVE",
"108 430 OFFCURVE",
"125 461 CURVE SMOOTH",
"152 511 OFFCURVE",
"142 660 OFFCURVE",
"143 700 CURVE",
"307 700 LINE"
);
},
{
closed = 0;
nodes = (
"140 -35 LINE SMOOTH"
);
},
{
closed = 0;
nodes = (
"306 -36 LINE SMOOTH"
);
}
);
width = 348;
}
);
unicode = 0049;
},
{
glyphname = J;
lastChange = "2017-11-26 14:50:29 +0000";
layers = (
{
layerId = "8163A9A7-FEB5-4584-B00B-7D9977804228";
paths = (
{
closed = 1;
nodes = (
"40 41 LINE",
"56 22 OFFCURVE",
"109 -9 OFFCURVE",
"186 -24 CURVE SMOOTH",
"263 -39 OFFCURVE",
"312 -24 OFFCURVE",
"349 5 CURVE SMOOTH",
"372 23 OFFCURVE",
"424 79 OFFCURVE",
"473 171 CURVE SMOOTH",
"502 226 OFFCURVE",
"541 226 OFFCURVE",
"582 285 CURVE SMOOTH",
"621 341 OFFCURVE",
"634 502 OFFCURVE",
"644 530 CURVE SMOOTH",
"654 558 OFFCURVE",
"663 602 OFFCURVE",
"675 631 CURVE",
"563 719 LINE",
"552 691 OFFCURVE",
"544 652 OFFCURVE",
"535 626 CURVE SMOOTH",
"526 599 OFFCURVE",
"513 446 OFFCURVE",
"476 392 CURVE SMOOTH",
"437 335 OFFCURVE",
"407 328 OFFCURVE",
"385 284 CURVE SMOOTH",
"352 217 OFFCURVE",
"339 179 OFFCURVE",
"318 162 CURVE SMOOTH",
"282 135 OFFCURVE",
"219 88 OFFCURVE",
"99 189 CURVE"
);
},
{
closed = 0;
nodes = (
"700 660 LINE SMOOTH"
);
},
{
closed = 0;
nodes = (
"595 788 LINE SMOOTH"
);
}
);
width = 720;
}
);
unicode = 004A;
},
{
glyphname = K;
lastChange = "2017-11-28 13:23:49 +0000";
layers = (
{
layerId = "8163A9A7-FEB5-4584-B00B-7D9977804228";
paths = (
{
closed = 1;
nodes = (
"191 300 LINE",
"208 300 OFFCURVE",
"274 301 OFFCURVE",
"274 169 CURVE",
"273 57 LINE",
"273 0 LINE",
"354 0 LINE",
"354 57 LINE",
"355 169 LINE",
"355 279 OFFCURVE",
"294 374 OFFCURVE",
"219 409 CURVE"
);
},
{
closed = 1;
nodes = (
"204 0 LINE",
"204 104 LINE",
"203 271 OFFCURVE",
"233 321 OFFCURVE",
"255 425 CURVE SMOOTH",
"277 529 OFFCURVE",
"273 549 OFFCURVE",
"273 596 CURVE SMOOTH",
"273 700 LINE",
"109 700 LINE",
"109 596 LINE SMOOTH",
"109 549 OFFCURVE",
"113 529 OFFCURVE",
"91 425 CURVE SMOOTH",
"69 321 OFFCURVE",
"39 271 OFFCURVE",
"40 104 CURVE",
"40 0 LINE"
);
},
{
closed = 1;
nodes = (
"246 409 OFFCURVE",
"410 485 OFFCURVE",
"402 500 CURVE SMOOTH",
"360 577 LINE",
"350 564 OFFCURVE",
"285 501 OFFCURVE",
"226 486 CURVE",
"246 409 LINE SMOOTH"
);
}
);
width = 427;
},
{
associatedMasterId = "8163A9A7-FEB5-4584-B00B-7D9977804228";
layerId = "824E7E0B-BF37-4B89-8807-3571C46BAC19";
name = "Nov 28 17, 14:20";
paths = (
{
closed = 1;
nodes = (
"116 660 OFFCURVE",
"126 511 OFFCURVE",
"99 461 CURVE SMOOTH",
"82 430 OFFCURVE",
"45 402 OFFCURVE",
"28 380 CURVE SMOOTH",
"-8 334 OFFCURVE",
"34 304 OFFCURVE",
"72 261 CURVE SMOOTH",
"110 218 OFFCURVE",
"112 180 OFFCURVE",
"114 104 CURVE",
"114 0 LINE",
"-50 0 LINE",
"-50 104 LINE",
"-52 180 OFFCURVE",
"-54 218 OFFCURVE",
"-92 261 CURVE SMOOTH",
"-130 304 OFFCURVE",
"-172 334 OFFCURVE",
"-136 380 CURVE SMOOTH",
"-119 402 OFFCURVE",
"-82 430 OFFCURVE",
"-65 461 CURVE SMOOTH",
"-38 511 OFFCURVE",
"-48 660 OFFCURVE",
"-47 700 CURVE",
"117 700 LINE"
);
}
);
visible = 1;
width = 337;
}
);
unicode = 004B;
},
{
glyphname = L;
lastChange = "2017-11-28 13:03:48 +0000";
layers = (
{
layerId = "8163A9A7-FEB5-4584-B00B-7D9977804228";
paths = (
{
closed = 1;
nodes = (
"136 0 LINE",
"135 86 LINE",
"135 155 OFFCURVE",
"151 193 OFFCURVE",
"151 235 CURVE SMOOTH",
"151 261 OFFCURVE",
"106 311 OFFCURVE",
"87 340 CURVE SMOOTH",
"-8 486 OFFCURVE",
"56 595 OFFCURVE",
"56 700 CURVE",
"219 700 LINE",
"219 595 OFFCURVE",
"155 486 OFFCURVE",
"250 340 CURVE SMOOTH",
"269 311 OFFCURVE",
"314 261 OFFCURVE",
"314 235 CURVE SMOOTH",
"314 193 OFFCURVE",
"298 155 OFFCURVE",
"298 86 CURVE",
"298 79 OFFCURVE",
"299 69 OFFCURVE",
"308 74 CURVE SMOOTH",
"317 79 OFFCURVE",
"465 106 OFFCURVE",
"498 104 CURVE",
"498 28 LINE",
"460 28 OFFCURVE",
"348 0 OFFCURVE",
"298 0 CURVE"
);
}
);
width = 533;
},
{
associatedMasterId = "8163A9A7-FEB5-4584-B00B-7D9977804228";
layerId = "453E2834-68B7-4A2D-A424-A1B002338DCA";
name = "Nov 28 17, 14:03";
paths = (
{
closed = 1;
nodes = (
"222 660 OFFCURVE",
"232 511 OFFCURVE",
"205 461 CURVE SMOOTH",
"188 430 OFFCURVE",
"151 402 OFFCURVE",
"134 380 CURVE SMOOTH",
"98 334 OFFCURVE",
"140 304 OFFCURVE",
"178 261 CURVE SMOOTH",
"216 218 OFFCURVE",
"218 180 OFFCURVE",
"220 104 CURVE",
"220 0 LINE",
"56 0 LINE",
"56 104 LINE",
"54 180 OFFCURVE",
"52 218 OFFCURVE",
"14 261 CURVE SMOOTH",
"-24 304 OFFCURVE",
"-66 334 OFFCURVE",
"-30 380 CURVE SMOOTH",
"-13 402 OFFCURVE",
"24 430 OFFCURVE",
"41 461 CURVE SMOOTH",
"68 511 OFFCURVE",
"58 660 OFFCURVE",
"59 700 CURVE",
"223 700 LINE"
);
}
);
visible = 1;
width = 454;
}
);
unicode = 004C;
},
{
glyphname = M;
lastChange = "2017-11-28 10:37:58 +0000";
layers = (
{
layerId = "8163A9A7-FEB5-4584-B00B-7D9977804228";
paths = (
{
closed = 1;
nodes = (
"80 700 LINE",
"51 618 OFFCURVE",
"39 604 OFFCURVE",
"35 485 CURVE SMOOTH",
"33 420 OFFCURVE",
"41 384 OFFCURVE",
"51 355 CURVE SMOOTH",
"61 326 OFFCURVE",
"47 261 OFFCURVE",
"44 232 CURVE SMOOTH",
"41 203 OFFCURVE",
"50 160 OFFCURVE",
"59 121 CURVE SMOOTH",
"88 0 LINE",
"236 0 LINE",
"208 121 LINE SMOOTH",
"199 160 OFFCURVE",
"190 203 OFFCURVE",
"193 232 CURVE SMOOTH",
"196 261 OFFCURVE",
"210 326 OFFCURVE",
"200 355 CURVE SMOOTH",
"190 384 OFFCURVE",
"182 420 OFFCURVE",
"184 485 CURVE SMOOTH",
"188 604 OFFCURVE",
"199 618 OFFCURVE",
"228 700 CURVE"
);
},
{
closed = 1;
nodes = (
"276 635 LINE SMOOTH",
"252 667 OFFCURVE",
"242 682 OFFCURVE",
"228 700 CURVE",
"203 639 LINE",
"217 621 OFFCURVE",
"220 617 OFFCURVE",
"244 585 CURVE SMOOTH",
"286 529 LINE",
"300 552 OFFCURVE",
"301 549 OFFCURVE",
"318 579 CURVE"
);
},
{
closed = 1;
nodes = (
"372 597 OFFCURVE",
"332 573 OFFCURVE",
"300 505 CURVE",
"251 372 LINE",
"290 343 LINE",
"318 429 LINE",
"329 466 OFFCURVE",
"346 531 OFFCURVE",
"369 514 CURVE",
"346 399 LINE SMOOTH",
"337 355 OFFCURVE",
"352 254 OFFCURVE",
"370 194 CURVE SMOOTH",
"388 134 OFFCURVE",
"410 52 OFFCURVE",
"423 0 CURVE",
"498 0 LINE",
"485 52 OFFCURVE",
"463 134 OFFCURVE",
"445 194 CURVE SMOOTH",
"427 254 OFFCURVE",
"412 355 OFFCURVE",
"421 399 CURVE SMOOTH",
"458 582 OFFCURVE",
"414 489 OFFCURVE",
"473 610 CURVE",
"394 610 LINE",
"394 610 LINE"
);
}
);
width = 533;
},
{
associatedMasterId = "8163A9A7-FEB5-4584-B00B-7D9977804228";
layerId = "43F09CC4-E4DD-40DC-BC5B-38E475BE163D";
name = "Nov 28 17, 11:33";
paths = (
{
closed = 1;
nodes = (
"403 411 OFFCURVE",
"350 362 OFFCURVE",
"340 314 CURVE SMOOTH",
"330 266 OFFCURVE",
"348 210 OFFCURVE",
"374 160 CURVE SMOOTH",
"392 125 OFFCURVE",
"399 94 OFFCURVE",
"399 0 CURVE",
"320 0 LINE",
"320 94 OFFCURVE",
"313 125 OFFCURVE",
"295 160 CURVE SMOOTH",
"269 210 OFFCURVE",
"251 266 OFFCURVE",
"261 314 CURVE SMOOTH",
"271 362 OFFCURVE",
"313 441 OFFCURVE",
"325 472 CURVE",
"303 510 OFFCURVE",
"195 581 OFFCURVE",
"141 611 CURVE",
"141 532 LINE SMOOTH",
"141 469 OFFCURVE",
"128 418 OFFCURVE",
"116 360 CURVE SMOOTH",
"104 302 OFFCURVE",
"144 258 OFFCURVE",
"144 222 CURVE SMOOTH",
"144 186 OFFCURVE",
"142 58 OFFCURVE",
"139 0 CURVE",
"-33 0 LINE",
"-30 58 OFFCURVE",
"-28 186 OFFCURVE",
"-28 222 CURVE SMOOTH",
"-28 258 OFFCURVE",
"-68 302 OFFCURVE",
"-56 360 CURVE SMOOTH",
"-44 418 OFFCURVE",
"-31 469 OFFCURVE",
"-31 532 CURVE SMOOTH",
"-31 700 LINE",
"134 700 LINE",
"157 700 OFFCURVE",
"300 628 OFFCURVE",
"330 579 CURVE",
"327 614 OFFCURVE",
"321 641 OFFCURVE",
"320 700 CURVE",
"399 700 LINE",
"400 641 OFFCURVE",
"406 614 OFFCURVE",
"409 579 CURVE"
);
}
);
visible = 1;
width = 464;
}
);
unicode = 004D;
},
{
glyphname = N;
lastChange = "2017-11-28 13:31:33 +0000";
layers = (
{
layerId = "8163A9A7-FEB5-4584-B00B-7D9977804228";
paths = (
{
closed = 1;
nodes = (
"501 411 OFFCURVE",
"448 362 OFFCURVE",
"438 314 CURVE SMOOTH",
"428 266 OFFCURVE",
"446 210 OFFCURVE",
"472 160 CURVE SMOOTH",
"490 125 OFFCURVE",
"497 94 OFFCURVE",
"497 0 CURVE",
"418 0 LINE",
"418 94 OFFCURVE",
"411 125 OFFCURVE",
"393 160 CURVE SMOOTH",
"367 210 OFFCURVE",
"349 266 OFFCURVE",
"359 314 CURVE SMOOTH",
"369 362 OFFCURVE",
"411 441 OFFCURVE",
"423 472 CURVE",
"401 510 OFFCURVE",
"293 581 OFFCURVE",
"239 611 CURVE",
"239 532 LINE SMOOTH",
"239 469 OFFCURVE",
"226 418 OFFCURVE",
"214 360 CURVE SMOOTH",
"202 302 OFFCURVE",
"242 258 OFFCURVE",
"242 222 CURVE SMOOTH",
"242 186 OFFCURVE",
"240 58 OFFCURVE",
"237 0 CURVE",
"65 0 LINE",
"68 58 OFFCURVE",
"70 186 OFFCURVE",
"70 222 CURVE SMOOTH",
"70 258 OFFCURVE",
"30 302 OFFCURVE",
"42 360 CURVE SMOOTH",
"54 418 OFFCURVE",
"67 469 OFFCURVE",
"67 532 CURVE SMOOTH",
"67 700 LINE",
"232 700 LINE",
"255 700 OFFCURVE",
"398 628 OFFCURVE",
"428 579 CURVE",
"425 614 OFFCURVE",
"419 641 OFFCURVE",
"418 700 CURVE",
"497 700 LINE",
"498 641 OFFCURVE",
"504 614 OFFCURVE",
"507 579 CURVE"
);
}
);
width = 547;
},
{
associatedMasterId = "8163A9A7-FEB5-4584-B00B-7D9977804228";
layerId = "C765CE3E-B232-48DA-87D3-808C773D32CE";
name = "Nov 28 17, 11:32";
paths = (
{
closed = 1;
nodes = (
"300 648 OFFCURVE",
"331 705 OFFCURVE",
"184 705 CURVE SMOOTH",
"75 705 OFFCURVE",
"-30 600 OFFCURVE",
"-37 480 CURVE",
"-37 469 OFFCURVE",
"-37 458 OFFCURVE",
"-38 448 CURVE SMOOTH",
"-50 329 OFFCURVE",
"-105 205 OFFCURVE",
"0 42 CURVE",
"67 -49 OFFCURVE",
"328 -7 OFFCURVE",
"403 132 CURVE",
"403 132 OFFCURVE",
"386 203 OFFCURVE",
"336 245 CURVE",
"299 156 OFFCURVE",
"239 -12 OFFCURVE",
"155 102 CURVE",
"91 218 OFFCURVE",
"116 343 OFFCURVE",
"128 427 CURVE SMOOTH",
"141 516 OFFCURVE",
"159 648 OFFCURVE",
"204 648 CURVE SMOOTH",
"308 648 OFFCURVE",
"324 508 OFFCURVE",
"401 484 CURVE",
"385 617 LINE"
);
}
);
visible = 1;
width = 444;
}
);
unicode = 004E;
},
{
glyphname = O;
lastChange = "2017-11-26 15:05:20 +0000";
layers = (
{
layerId = "8163A9A7-FEB5-4584-B00B-7D9977804228";
paths = (
{
closed = 1;
nodes = (
"237 583 OFFCURVE",
"311 658 OFFCURVE",
"389 658 CURVE SMOOTH",
"493 658 OFFCURVE",
"480 607 OFFCURVE",
"557 583 CURVE SMOOTH",
"635 560 OFFCURVE",
"538 412 OFFCURVE",
"545 336 CURVE SMOOTH",
"553 259 OFFCURVE",
"512 166 OFFCURVE",
"476 94 CURVE SMOOTH",
"441 23 OFFCURVE",
"289 7 OFFCURVE",
"241 72 CURVE",
"166 188 OFFCURVE",
"219 341 OFFCURVE",
"227 425 CURVE SMOOTH",
"228 432 OFFCURVE",
"232 490 OFFCURVE",
"232 498 CURVE SMOOTH"
);
},
{
closed = 1;
nodes = (
"71 476 OFFCURVE",
"71 465 OFFCURVE",
"70 455 CURVE SMOOTH",
"58 336 OFFCURVE",
"3 212 OFFCURVE",
"108 49 CURVE",
"197 -72 OFFCURVE",
"559 -33 OFFCURVE",
"624 81 CURVE SMOOTH",
"680 179 OFFCURVE",
"715 221 OFFCURVE",
"704 329 CURVE SMOOTH",
"693 437 OFFCURVE",
"807 546 OFFCURVE",
"714 607 CURVE SMOOTH",
"527 730 OFFCURVE",
"439 712 OFFCURVE",
"292 712 CURVE SMOOTH",
"183 712 OFFCURVE",
"78 607 OFFCURVE",
"71 487 CURVE"
);
}
);
width = 796;
}
);
unicode = 004F;
},
{
glyphname = P;
lastChange = "2017-11-28 13:48:38 +0000";
layers = (
{
layerId = "8163A9A7-FEB5-4584-B00B-7D9977804228";
paths = (
{
closed = 1;
nodes = (
"175 375 OFFCURVE",
"197 373 OFFCURVE",
"222 386 CURVE SMOOTH",
"277 414 OFFCURVE",
"396 469 OFFCURVE",
"418 508 CURVE SMOOTH",
"442 550 OFFCURVE",
"433 566 OFFCURVE",
"369 622 CURVE SMOOTH",
"317 668 OFFCURVE",
"284 692 OFFCURVE",
"255 704 CURVE SMOOTH",
"179 735 OFFCURVE",
"134 726 OFFCURVE",
"94 702 CURVE SMOOTH",
"72 689 OFFCURVE",
"39 678 OFFCURVE",
"39 630 CURVE",
"35 386 LINE SMOOTH",
"33 274 OFFCURVE",
"62 216 OFFCURVE",
"83 170 CURVE SMOOTH",
"115 98 OFFCURVE",
"150 33 OFFCURVE",
"172 0 CURVE",
"338 0 LINE",
"302 77 OFFCURVE",
"227 242 OFFCURVE",
"206 296 CURVE SMOOTH"
);
},
{
closed = 1;
nodes = (
"110 465 OFFCURVE",
"109 551 OFFCURVE",
"110 594 CURVE SMOOTH",
"112 658 OFFCURVE",
"209 670 OFFCURVE",
"263 622 CURVE",
"305 576 LINE",
"323 551 OFFCURVE",
"342 531 OFFCURVE",
"297 511 CURVE SMOOTH",
"110 429 LINE"
);
}
);
width = 475;
},
{
associatedMasterId = "8163A9A7-FEB5-4584-B00B-7D9977804228";
layerId = "90BB86C6-74E4-4154-AA15-485812D94B02";
name = "Nov 25 17, 10:55";
paths = (
{
closed = 1;
nodes = (
"174 0 LINE",
"95 0 LINE",
"95 399 LINE",
"94 418 OFFCURVE",
"111 445 OFFCURVE",
"125 466 CURVE",
"173 528 LINE",
"190 548 OFFCURVE",
"201 556 OFFCURVE",
"195 583 CURVE SMOOTH",
"191 602 OFFCURVE",
"130 672 OFFCURVE",
"105 700 CURVE",
"184 700 LINE",
"209 672 OFFCURVE",
"270 602 OFFCURVE",
"274 583 CURVE SMOOTH",
"278 565 OFFCURVE",
"278 564 OFFCURVE",
"270 553 CURVE",
"252 528 OFFCURVE",
"303 407 OFFCURVE",
"311 369 CURVE SMOOTH",
"317 341 OFFCURVE",
"303 322 OFFCURVE",
"288 322 CURVE",
"270 322 OFFCURVE",
"213 370 OFFCURVE",
"213 371 CURVE",
"174 399 LINE"
);
},
{
closed = 1;
nodes = (
"195 461 LINE",
"246 415 LINE",
"225 493 LINE",
"210 477 LINE"
);
}
);
width = 378;
},
{
associatedMasterId = "8163A9A7-FEB5-4584-B00B-7D9977804228";
layerId = "2B8F4C10-4A95-427A-B5D3-97AF39931EDA";
name = "Nov 26 17, 15:52";
paths = (
{
closed = 1;
nodes = (
"107 324 OFFCURVE",
"110 373 OFFCURVE",
"135 386 CURVE SMOOTH",
"190 414 OFFCURVE",
"309 469 OFFCURVE",
"331 508 CURVE SMOOTH",
"355 550 OFFCURVE",
"346 566 OFFCURVE",
"282 622 CURVE SMOOTH",
"230 668 OFFCURVE",
"198 695 OFFCURVE",
"168 704 CURVE SMOOTH",
"140 712 OFFCURVE",
"120 710 OFFCURVE",
"94 702 CURVE SMOOTH",
"69 694 OFFCURVE",
"44 670 OFFCURVE",
"39 630 CURVE",
"35 386 LINE SMOOTH",
"33 274 OFFCURVE",
"62 216 OFFCURVE",
"83 170 CURVE SMOOTH",
"115 98 OFFCURVE",
"150 33 OFFCURVE",
"172 0 CURVE",
"251 0 LINE",
"215 77 OFFCURVE",
"141 244 OFFCURVE",
"119 296 CURVE SMOOTH"
);
},
{
closed = 1;
nodes = (
"110 484 OFFCURVE",
"111 551 OFFCURVE",
"110 594 CURVE SMOOTH",
"109 630 OFFCURVE",
"158 644 OFFCURVE",
"176 622 CURVE",
"218 576 LINE",
"236 551 OFFCURVE",
"255 539 OFFCURVE",
"210 511 CURVE SMOOTH",
"110 448 LINE"
);
}
);
width = 378;
}
);
unicode = 0050;
},
{
glyphname = Q;
lastChange = "2017-11-28 10:30:49 +0000";
layers = (
{
layerId = "8163A9A7-FEB5-4584-B00B-7D9977804228";
paths = (
{
closed = 1;
nodes = (
"194 -68 OFFCURVE",
"545 -50 OFFCURVE",
"616 69 CURVE SMOOTH",
"674 166 OFFCURVE",
"707 209 OFFCURVE",
"696 317 CURVE SMOOTH",
"685 425 OFFCURVE",
"795 540 OFFCURVE",
"706 606 CURVE SMOOTH",
"611 677 OFFCURVE",
"529 712 OFFCURVE",
"292 712 CURVE SMOOTH",
"183 712 OFFCURVE",
"78 607 OFFCURVE",
"71 487 CURVE",
"71 476 OFFCURVE",
"71 465 OFFCURVE",
"70 455 CURVE SMOOTH",
"58 336 OFFCURVE",
"3 212 OFFCURVE",
"108 49 CURVE"
);
},
{
closed = 1;
nodes = (
"311 -200 LINE",
"311 -96 LINE",
"309 -20 OFFCURVE",
"307 -17 OFFCURVE",
"269 26 CURVE",
"103 61 LINE",
"141 18 OFFCURVE",
"143 -20 OFFCURVE",
"145 -96 CURVE",
"145 -200 LINE"
);
},
{
closed = 1;
nodes = (
"160 180 OFFCURVE",
"218 341 OFFCURVE",
"226 425 CURVE SMOOTH",
"227 432 OFFCURVE",
"227 440 OFFCURVE",
"227 448 CURVE",
"235 572 OFFCURVE",
"271 643 OFFCURVE",
"384 655 CURVE SMOOTH",
"471 664 OFFCURVE",
"475 604 OFFCURVE",
"552 580 CURVE SMOOTH",
"630 557 OFFCURVE",
"538 412 OFFCURVE",
"545 336 CURVE SMOOTH",
"553 259 OFFCURVE",
"506 158 OFFCURVE",
"470 86 CURVE SMOOTH",
"435 15 OFFCURVE",
"283 -1 OFFCURVE",
"235 64 CURVE"
);
}
);
width = 786;
},
{
associatedMasterId = "8163A9A7-FEB5-4584-B00B-7D9977804228";
layerId = "BCC9BA98-F2F1-49E7-8D5D-4F1B5FFDBB0E";
name = "Nov 28 17, 11:29";
paths = (
{
closed = 1;
nodes = (
"138 579 OFFCURVE",
"217 654 OFFCURVE",
"295 654 CURVE SMOOTH",
"399 654 OFFCURVE",
"386 603 OFFCURVE",
"463 579 CURVE SMOOTH",
"541 555 OFFCURVE",
"444 408 OFFCURVE",
"451 332 CURVE SMOOTH",
"458 255 OFFCURVE",
"418 162 OFFCURVE",
"382 90 CURVE SMOOTH",
"347 19 OFFCURVE",
"195 3 OFFCURVE",
"147 68 CURVE",
"72 184 OFFCURVE",
"121 337 OFFCURVE",
"133 421 CURVE SMOOTH",
"134 428 OFFCURVE",
"138 486 OFFCURVE",
"138 494 CURVE SMOOTH"
);
},
{
closed = 1;
nodes = (
"-23 472 OFFCURVE",
"-23 461 OFFCURVE",
"-24 451 CURVE SMOOTH",
"-36 332 OFFCURVE",
"-91 208 OFFCURVE",
"14 45 CURVE",
"103 -76 OFFCURVE",
"465 -37 OFFCURVE",
"530 77 CURVE SMOOTH",
"586 175 OFFCURVE",
"621 217 OFFCURVE",
"610 325 CURVE SMOOTH",
"599 433 OFFCURVE",
"713 542 OFFCURVE",
"620 603 CURVE SMOOTH",
"433 726 OFFCURVE",
"345 708 OFFCURVE",
"198 708 CURVE SMOOTH",
"89 708 OFFCURVE",
"-16 603 OFFCURVE",
"-23 483 CURVE"
);
}
);
visible = 1;
width = 600;
}
);
unicode = 0051;
},
{
glyphname = R;
lastChange = "2017-11-28 10:51:08 +0000";
layers = (
{
layerId = "8163A9A7-FEB5-4584-B00B-7D9977804228";
paths = (
{
closed = 1;
nodes = (
"249 155 OFFCURVE",
"310 235 OFFCURVE",
"348 188 CURVE",
"440 38 LINE",
"515 82 LINE",
"424 232 LINE",
"385 279 OFFCURVE",
"282 208 OFFCURVE",
"282 293 CURVE SMOOTH",
"282 316 OFFCURVE",
"308 320 OFFCURVE",
"337 320 CURVE",
"367 319 OFFCURVE",
"461 327 OFFCURVE",
"482 374 CURVE SMOOTH",
"494 401 OFFCURVE",
"489 430 OFFCURVE",
"467 460 CURVE",
"331 655 LINE SMOOTH",
"279 730 OFFCURVE",
"132 724 OFFCURVE",
"76 674 CURVE SMOOTH",
"46 647 OFFCURVE",
"35 640 OFFCURVE",
"35 602 CURVE",
"35 271 LINE",
"35 203 OFFCURVE",
"118 147 OFFCURVE",
"118 94 CURVE SMOOTH",
"118 47 OFFCURVE",
"114 31 OFFCURVE",
"113 0 CURVE",
"281 -2 LINE",
"282 29 OFFCURVE",
"285 45 OFFCURVE",
"285 92 CURVE SMOOTH",
"285 145 OFFCURVE",
"201 201 OFFCURVE",
"202 269 CURVE SMOOTH",
"205 536 LINE SMOOTH",
"206 559 OFFCURVE",
"204 587 OFFCURVE",
"214 601 CURVE SMOOTH",
"229 623 OFFCURVE",
"254 624 OFFCURVE",
"271 603 CURVE",
"353 486 LINE SMOOTH",
"374 456 OFFCURVE",
"420 383 OFFCURVE",
"293 388 CURVE SMOOTH",
"238 390 OFFCURVE",
"216 359 OFFCURVE",
"229 279 CURVE SMOOTH"
);
}
);
width = 560;
},
{
associatedMasterId = "8163A9A7-FEB5-4584-B00B-7D9977804228";
layerId = "F48D10FE-9A54-4E2C-9704-F587D7754DC4";
name = "Nov 28 17, 11:50";
paths = (
{
closed = 0;
nodes = (
"205 611 LINE",
"205 532 LINE SMOOTH",
"205 469 OFFCURVE",
"192 418 OFFCURVE",
"180 360 CURVE SMOOTH",
"168 302 OFFCURVE",
"208 258 OFFCURVE",
"208 222 CURVE SMOOTH",
"208 186 OFFCURVE",
"206 58 OFFCURVE",
"203 0 CURVE",
"31 0 LINE",
"34 58 OFFCURVE",
"36 186 OFFCURVE",
"36 222 CURVE SMOOTH",
"36 258 OFFCURVE",
"-4 302 OFFCURVE",
"8 360 CURVE SMOOTH",
"20 418 OFFCURVE",
"33 469 OFFCURVE",
"33 532 CURVE SMOOTH",
"33 700 LINE",
"198 700 LINE"
);
}
);
visible = 1;
width = 528;
}
);
unicode = 0052;
},
{
glyphname = S;
lastChange = "2017-11-28 13:36:39 +0000";
layers = (
{
layerId = "8163A9A7-FEB5-4584-B00B-7D9977804228";
paths = (
{
closed = 1;
nodes = (
"320 561 OFFCURVE",
"362 416 OFFCURVE",
"407 291 CURVE SMOOTH",
"437 207 OFFCURVE",
"463 132 OFFCURVE",
"467 121 CURVE SMOOTH",
"502 26 OFFCURVE",
"371 -39 OFFCURVE",
"310 0 CURVE",
"40 163 LINE",
"79 234 LINE",
"104 219 OFFCURVE",
"268 120 OFFCURVE",
"292 105 CURVE SMOOTH",
"308 95 OFFCURVE",
"319 106 OFFCURVE",
"312 121 CURVE SMOOTH",
"307 131 OFFCURVE",
"279 201 OFFCURVE",
"247 286 CURVE SMOOTH",
"193 431 OFFCURVE",
"130 593 OFFCURVE",
"160 648 CURVE SMOOTH",
"176 677 OFFCURVE",
"231 738 OFFCURVE",
"355 700 CURVE SMOOTH",
"397 687 OFFCURVE",
"409 676 OFFCURVE",
"455 638 CURVE",
"533 570 LINE",
"482 510 LINE",
"345 629 LINE",
"327 642 OFFCURVE",
"320 624 OFFCURVE",
"320 615 CURVE"
);
}
);
width = 573;
},
{
associatedMasterId = "8163A9A7-FEB5-4584-B00B-7D9977804228";
layerId = "3A20FA41-2A71-42AE-9D0B-167FE021F213";
name = "Nov 28 17, 14:18";
paths = (
{
closed = 1;
nodes = (
"385 18 LINE",
"370 41 OFFCURVE",
"239 184 OFFCURVE",
"204 238 CURVE SMOOTH",
"169 291 OFFCURVE",
"140 325 OFFCURVE",
"137 404 CURVE SMOOTH",
"134 490 OFFCURVE",
"138 618 OFFCURVE",
"134 701 CURVE",
"289 728 LINE",
"293 644 OFFCURVE",
"290 516 OFFCURVE",
"292 430 CURVE SMOOTH",
"294 345 OFFCURVE",
"325 318 OFFCURVE",
"360 265 CURVE SMOOTH",
"395 212 OFFCURVE",
"525 67 OFFCURVE",
"541 44 CURVE"
);
},
{
closed = 1;
nodes = (
"182 95 LINE",
"197 248 OFFCURVE",
"267 166 OFFCURVE",
"253 13 CURVE"
);
}
);
visible = 1;
width = 500;
}
);
unicode = 0053;
},
{
glyphname = T;
lastChange = "2017-11-28 13:36:50 +0000";
layers = (
{
layerId = "8163A9A7-FEB5-4584-B00B-7D9977804228";
paths = (
{
closed = 1;
nodes = (
"454 497 OFFCURVE",
"502 493 OFFCURVE",
"620 529 CURVE",
"583 595 LINE",
"536 568 OFFCURVE",
"400 543 OFFCURVE",
"400 544 CURVE",
"401 608 OFFCURVE",
"402 680 OFFCURVE",
"402 700 CURVE",
"229 700 LINE",
"229 681 OFFCURVE",
"232 614 OFFCURVE",
"232 545 CURVE",
"159 544 OFFCURVE",
"92 504 OFFCURVE",
"43 483 CURVE",
"82 415 LINE",
"102 416 OFFCURVE",
"137 482 OFFCURVE",
"231 482 CURVE",
"230 448 OFFCURVE",
"227 417 OFFCURVE",
"222 401 CURVE SMOOTH",
"205 343 OFFCURVE",
"177 296 OFFCURVE",
"118 240 CURVE SMOOTH",
"59 184 OFFCURVE",
"25 80 OFFCURVE",
"20 0 CURVE",
"193 0 LINE",
"193 49 OFFCURVE",
"209 116 OFFCURVE",
"224 140 CURVE SMOOTH",
"261 199 OFFCURVE",
"389 299 OFFCURVE",
"397 442 CURVE SMOOTH",
"398 448 OFFCURVE",
"398 462 OFFCURVE",
"399 481 CURVE"
);
}
);
width = 640;
},
{
associatedMasterId = "8163A9A7-FEB5-4584-B00B-7D9977804228";
layerId = "38869702-2127-47FF-852F-7F3244296F5A";
name = "Nov 28 17, 11:52";
paths = (
{
closed = 1;
nodes = (
"464 497 OFFCURVE",
"512 493 OFFCURVE",
"630 529 CURVE",
"593 595 LINE",
"546 568 OFFCURVE",
"410 543 OFFCURVE",
"410 544 CURVE",
"411 608 OFFCURVE",
"412 680 OFFCURVE",
"412 700 CURVE",
"239 700 LINE",
"239 681 OFFCURVE",
"242 614 OFFCURVE",
"242 545 CURVE",
"169 544 OFFCURVE",
"102 504 OFFCURVE",
"53 483 CURVE",
"92 415 LINE",
"112 416 OFFCURVE",
"147 482 OFFCURVE",
"241 482 CURVE",
"240 448 OFFCURVE",
"237 417 OFFCURVE",
"232 401 CURVE SMOOTH",
"215 343 OFFCURVE",
"187 296 OFFCURVE",
"128 240 CURVE SMOOTH",
"69 184 OFFCURVE",
"35 80 OFFCURVE",
"30 0 CURVE",
"203 0 LINE",
"203 49 OFFCURVE",
"219 116 OFFCURVE",
"234 140 CURVE SMOOTH",
"271 199 OFFCURVE",
"399 299 OFFCURVE",
"407 442 CURVE SMOOTH",
"408 448 OFFCURVE",
"408 462 OFFCURVE",
"409 481 CURVE"
);
}
);
width = 660;
}
);
unicode = 0054;
},
{
glyphname = U;
lastChange = "2017-11-28 13:37:00 +0000";
layers = (
{
layerId = "8163A9A7-FEB5-4584-B00B-7D9977804228";
paths = (
{
closed = 1;
nodes = (
"413 134 OFFCURVE",
"451 273 OFFCURVE",
"451 385 CURVE SMOOTH",
"451 415 OFFCURVE",
"452 538 OFFCURVE",
"452 700 CURVE",
"612 697 LINE",
"612 535 OFFCURVE",
"612 412 OFFCURVE",
"612 382 CURVE SMOOTH",
"612 270 OFFCURVE",
"590 184 OFFCURVE",
"581 139 CURVE SMOOTH",
"574 105 OFFCURVE",
"550 35 OFFCURVE",
"504 -2 CURVE SMOOTH",
"435 -57 OFFCURVE",
"354 0 OFFCURVE",
"105 113 CURVE",
"71 130 OFFCURVE",
"21 142 OFFCURVE",
"39 218 CURVE SMOOTH",
"57 294 OFFCURVE",
"68 363 OFFCURVE",
"88 451 CURVE SMOOTH",
"108 539 OFFCURVE",
"122 605 OFFCURVE",
"139 700 CURVE",
"303 700 LINE",
"286 605 OFFCURVE",
"275 538 OFFCURVE",
"252 451 CURVE SMOOTH",
"239 402 OFFCURVE",
"206 261 OFFCURVE",
"197 220 CURVE SMOOTH",
"187 174 OFFCURVE",
"171 142 OFFCURVE",
"218 114 CURVE SMOOTH",
"262 88 OFFCURVE",
"377 18 OFFCURVE",
"399 89 CURVE"
);
}
);
width = 657;
}
);
unicode = 0055;
},
{
glyphname = V;
lastChange = "2017-11-28 13:04:30 +0000";
layers = (
{
layerId = "8163A9A7-FEB5-4584-B00B-7D9977804228";
paths = (
{
closed = 1;
nodes = (
"306 0 LINE",
"290 25 OFFCURVE",
"51 330 OFFCURVE",
"41 373 CURVE SMOOTH",
"35 398 OFFCURVE",
"69 423 OFFCURVE",
"77 453 CURVE SMOOTH",
"85 483 OFFCURVE",
"57 571 OFFCURVE",
"57 653 CURVE",
"57 700 LINE",
"217 700 LINE",
"217 653 LINE",
"217 568 OFFCURVE",
"244 483 OFFCURVE",
"236 453 CURVE SMOOTH",
"228 423 OFFCURVE",
"192 398 OFFCURVE",
"200 373 CURVE SMOOTH",
"213 331 OFFCURVE",
"345 195 OFFCURVE",
"356 195 CURVE",
"301 309 OFFCURVE",
"304 336 OFFCURVE",
"327 399 CURVE SMOOTH",
"348 457 OFFCURVE",
"343 584 OFFCURVE",
"344 653 CURVE",
"344 700 LINE",
"423 700 LINE",
"423 653 LINE SMOOTH",
"423 606 OFFCURVE",
"424 500 OFFCURVE",
"424 473 CURVE SMOOTH",
"424 395 OFFCURVE",
"371 385 OFFCURVE",
"391 339 CURVE SMOOTH",
"411 293 OFFCURVE",
"454 195 OFFCURVE",
"468 0 CURVE"
);
}
);
width = 508;
},
{
associatedMasterId = "8163A9A7-FEB5-4584-B00B-7D9977804228";
backgroundImage = {
crop = "{{0, 0}, {237, 455}}";
imagePath = ../Desktop/V.png;
locked = "1";
transform = "{-2.5, 0, 0, -2.5, 684, 804}";
};
layerId = "5A0F0CF8-5D8C-40B0-9137-5EC2E1A1A9A2";
name = "Nov 25 17, 12:40";
paths = (
{
closed = 1;
nodes = (
"-172 660 OFFCURVE",
"-162 511 OFFCURVE",
"-189 461 CURVE SMOOTH",
"-206 430 OFFCURVE",
"-243 402 OFFCURVE",
"-260 380 CURVE SMOOTH",
"-296 334 OFFCURVE",
"-254 304 OFFCURVE",
"-216 261 CURVE SMOOTH",
"-178 218 OFFCURVE",
"-176 180 OFFCURVE",
"-174 104 CURVE",
"-174 0 LINE",
"-253 0 LINE",
"-253 104 LINE",
"-255 180 OFFCURVE",
"-257 218 OFFCURVE",
"-295 261 CURVE SMOOTH",
"-333 304 OFFCURVE",
"-375 334 OFFCURVE",
"-339 380 CURVE SMOOTH",
"-322 402 OFFCURVE",
"-285 430 OFFCURVE",
"-268 461 CURVE SMOOTH",
"-241 511 OFFCURVE",
"-251 660 OFFCURVE",
"-250 700 CURVE",
"-171 700 LINE"
);
},
{
closed = 0;
nodes = (
"405 653 LINE",
"405 700 LINE",
"484 700 LINE",
"484 653 LINE"
);
},
{
closed = 0;
nodes = (
"417 195 LINE SMOOTH",
"398 220 OFFCURVE",
"274 331 OFFCURVE",
"261 373 CURVE SMOOTH",
"253 398 OFFCURVE",
"289 423 OFFCURVE",
"297 453 CURVE SMOOTH",
"305 483 OFFCURVE",
"278 568 OFFCURVE",
"278 653 CURVE",
"278 700 LINE",
"199 700 LINE",
"199 653 LINE",
"199 571 OFFCURVE",
"227 483 OFFCURVE",
"219 453 CURVE SMOOTH",
"211 423 OFFCURVE",
"175 398 OFFCURVE",
"183 373 CURVE SMOOTH",
"196 331 OFFCURVE",
"431 25 OFFCURVE",
"450 0 CURVE",
"529 0 LINE"
);
}
);
width = 600;
},
{
associatedMasterId = "8163A9A7-FEB5-4584-B00B-7D9977804228";
layerId = "7A9CBB95-9E10-4C55-9CC8-E8D2A59D6E7C";
name = "Nov 28 17, 14:03";
paths = (
{
closed = 1;
nodes = (
"138 660 OFFCURVE",
"148 511 OFFCURVE",
"121 461 CURVE SMOOTH",
"104 430 OFFCURVE",
"67 402 OFFCURVE",
"50 380 CURVE SMOOTH",
"14 334 OFFCURVE",
"56 304 OFFCURVE",
"94 261 CURVE SMOOTH",
"132 218 OFFCURVE",
"134 180 OFFCURVE",
"136 104 CURVE",
"136 0 LINE",
"-28 0 LINE",
"-28 104 LINE",
"-30 180 OFFCURVE",
"-32 218 OFFCURVE",
"-70 261 CURVE SMOOTH",
"-108 304 OFFCURVE",
"-150 334 OFFCURVE",
"-114 380 CURVE SMOOTH",
"-97 402 OFFCURVE",
"-60 430 OFFCURVE",
"-43 461 CURVE SMOOTH",
"-16 511 OFFCURVE",
"-26 660 OFFCURVE",
"-25 700 CURVE",
"139 700 LINE"
);
}
);
width = 427;
}
);
unicode = 0056;
},
{
glyphname = W;
lastChange = "2017-11-28 10:41:29 +0000";
layers = (
{
layerId = "8163A9A7-FEB5-4584-B00B-7D9977804228";
paths = (
{
closed = 1;
nodes = (
"200 82 OFFCURVE",
"189 96 OFFCURVE",
"185 215 CURVE SMOOTH",
"183 280 OFFCURVE",
"191 316 OFFCURVE",
"201 345 CURVE SMOOTH",
"211 374 OFFCURVE",
"197 430 OFFCURVE",
"194 459 CURVE SMOOTH",
"191 488 OFFCURVE",
"201 531 OFFCURVE",
"209 570 CURVE SMOOTH",
"237 700 LINE",
"88 700 LINE",
"59 570 LINE SMOOTH",
"50 531 OFFCURVE",
"41 488 OFFCURVE",
"44 459 CURVE SMOOTH",
"47 430 OFFCURVE",
"61 374 OFFCURVE",
"51 345 CURVE SMOOTH",
"41 316 OFFCURVE",
"33 280 OFFCURVE",
"35 215 CURVE SMOOTH",
"39 96 OFFCURVE",
"51 82 OFFCURVE",
"80 0 CURVE",
"229 0 LINE"
);
},
{
closed = 1;
nodes = (
"302 151 OFFCURVE",
"301 148 OFFCURVE",
"287 171 CURVE",
"245 115 LINE SMOOTH",
"221 83 OFFCURVE",
"218 79 OFFCURVE",
"204 61 CURVE",
"229 0 LINE",
"243 18 OFFCURVE",
"253 33 OFFCURVE",
"277 65 CURVE SMOOTH",
"319 121 LINE"
);
},
{
closed = 1;
nodes = (
"395 90 LINE",
"474 90 LINE",
"415 211 OFFCURVE",
"459 118 OFFCURVE",
"422 301 CURVE SMOOTH",
"413 345 OFFCURVE",
"428 437 OFFCURVE",
"446 497 CURVE SMOOTH",
"464 557 OFFCURVE",
"486 648 OFFCURVE",
"499 700 CURVE",
"424 700 LINE",
"411 648 OFFCURVE",
"389 557 OFFCURVE",
"371 497 CURVE SMOOTH",
"353 437 OFFCURVE",
"338 345 OFFCURVE",
"347 301 CURVE SMOOTH",
"370 186 LINE",
"347 169 OFFCURVE",
"330 234 OFFCURVE",
"319 271 CURVE",
"291 357 LINE",
"252 328 LINE",
"301 195 LINE",
"333 127 OFFCURVE",
"373 103 OFFCURVE",
"395 90 CURVE"
);
}
);
width = 534;
},
{
associatedMasterId = "8163A9A7-FEB5-4584-B00B-7D9977804228";
layerId = "5CD4EADD-150D-461D-B2B0-38ED849B4185";
name = "Nov 28 17, 11:41";
paths = (
{
closed = 1;
nodes = (
"130 85 OFFCURVE",
"119 99 OFFCURVE",
"115 218 CURVE SMOOTH",
"113 283 OFFCURVE",
"121 319 OFFCURVE",
"131 348 CURVE SMOOTH",
"141 377 OFFCURVE",
"127 442 OFFCURVE",
"124 471 CURVE SMOOTH",
"121 500 OFFCURVE",
"130 543 OFFCURVE",
"139 582 CURVE SMOOTH",
"167 703 LINE",
"19 703 LINE",
"-10 582 LINE SMOOTH",
"-19 543 OFFCURVE",
"-28 500 OFFCURVE",
"-25 471 CURVE SMOOTH",
"-22 442 OFFCURVE",
"-8 377 OFFCURVE",
"-18 348 CURVE SMOOTH",
"-28 319 OFFCURVE",
"-36 283 OFFCURVE",
"-34 218 CURVE SMOOTH",
"-30 99 OFFCURVE",
"-18 85 OFFCURVE",
"11 3 CURVE",
"159 3 LINE"
);
},
{
closed = 1;
nodes = (
"232 154 OFFCURVE",
"231 151 OFFCURVE",
"217 174 CURVE",
"175 118 LINE SMOOTH",
"151 86 OFFCURVE",
"148 82 OFFCURVE",
"134 64 CURVE",
"159 3 LINE",
"173 21 OFFCURVE",
"183 36 OFFCURVE",
"207 68 CURVE SMOOTH",
"249 124 LINE"
);
},
{
closed = 1;
nodes = (
"325 93 LINE",
"404 93 LINE",
"345 214 OFFCURVE",
"389 121 OFFCURVE",
"352 304 CURVE SMOOTH",
"343 348 OFFCURVE",
"358 449 OFFCURVE",
"376 509 CURVE SMOOTH",
"394 569 OFFCURVE",
"416 651 OFFCURVE",
"429 703 CURVE",
"354 703 LINE",
"341 651 OFFCURVE",
"319 569 OFFCURVE",
"301 509 CURVE SMOOTH",
"283 449 OFFCURVE",
"268 348 OFFCURVE",
"277 304 CURVE SMOOTH",
"300 189 LINE",
"277 172 OFFCURVE",
"260 237 OFFCURVE",
"249 274 CURVE",
"221 360 LINE",
"182 331 LINE",
"231 198 LINE",
"263 130 OFFCURVE",
"303 106 OFFCURVE",
"325 93 CURVE"
);
}
);
visible = 1;
width = 464;
}
);
unicode = 0057;
},
{
glyphname = X;
lastChange = "2017-11-28 13:37:05 +0000";
layers = (
{
layerId = "8163A9A7-FEB5-4584-B00B-7D9977804228";
paths = (
{
closed = 1;
nodes = (
"296 0 LINE",
"281 23 OFFCURVE",
"150 166 OFFCURVE",
"115 220 CURVE SMOOTH",
"80 273 OFFCURVE",
"51 307 OFFCURVE",
"48 386 CURVE SMOOTH",
"45 472 OFFCURVE",
"49 600 OFFCURVE",
"45 683 CURVE",
"200 710 LINE",
"204 626 OFFCURVE",
"201 498 OFFCURVE",
"203 412 CURVE SMOOTH",
"205 327 OFFCURVE",
"236 300 OFFCURVE",
"271 247 CURVE SMOOTH",
"306 194 OFFCURVE",
"436 49 OFFCURVE",
"452 26 CURVE"
);
},
{
closed = 1;
nodes = (
"93 77 LINE",
"108 230 OFFCURVE",
"155 170 OFFCURVE",
"252 374 CURVE SMOOTH",
"280 433 OFFCURVE",
"202 482 OFFCURVE",
"231 563 CURVE",
"297 713 LINE",
"381 665 LINE",
"315 516 LINE",
"286 435 OFFCURVE",
"364 386 OFFCURVE",
"336 327 CURVE SMOOTH",
"239 123 OFFCURVE",
"178 148 OFFCURVE",
"164 -5 CURVE"
);
}
);
width = 487;
},
{
associatedMasterId = "8163A9A7-FEB5-4584-B00B-7D9977804228";
backgroundImage = {
crop = "{{0, 0}, {150, 271}}";
imagePath = "../Desktop/I - X.png";
locked = "1";
transform = "{7.5, 0, 0, 7.5, -172, -921}";
};
layerId = "E87EC45F-3776-4272-8816-FEDFEEC64796";
name = "Nov 25 17, 17:46";
paths = (
{
closed = 1;
nodes = (
"293 0 LINE",
"287 26 OFFCURVE",
"216 199 OFFCURVE",
"202 259 CURVE SMOOTH",
"188 319 OFFCURVE",
"172 358 OFFCURVE",
"196 431 CURVE SMOOTH",
"222 509 OFFCURVE",
"267 624 OFFCURVE",
"291 700 CURVE",
"370 700 LINE",
"346 624 OFFCURVE",
"301 509 OFFCURVE",
"275 431 CURVE SMOOTH",
"249 353 OFFCURVE",
"267 319 OFFCURVE",
"281 259 CURVE SMOOTH",
"295 199 OFFCURVE",
"366 26 OFFCURVE",
"372 0 CURVE"
);
},
{
closed = 1;
nodes = (
"59 148 LINE",
"122 281 OFFCURVE",
"147 210 OFFCURVE",
"300 363 CURVE SMOOTH",
"346 407 OFFCURVE",
"291 477 OFFCURVE",
"344 541 CURVE",
"452 654 LINE",
"512 603 LINE",
"404 490 LINE",
"351 426 OFFCURVE",
"405 357 OFFCURVE",
"360 312 CURVE SMOOTH",
"207 159 OFFCURVE",
"161 213 OFFCURVE",
"98 80 CURVE"
);
}
);
width = 600;
},
{
associatedMasterId = "8163A9A7-FEB5-4584-B00B-7D9977804228";
layerId = "0D40D619-4665-4BF3-9314-993F02DF2483";
name = "Nov 28 17, 13:57";
paths = (
{
closed = 1;
nodes = (
"-42 462 OFFCURVE",
"-41 448 OFFCURVE",
"-41 442 CURVE SMOOTH",
"-41 299 OFFCURVE",
"95 199 OFFCURVE",
"132 140 CURVE SMOOTH",
"147 116 OFFCURVE",
"163 49 OFFCURVE",
"163 0 CURVE",
"336 0 LINE",
"331 80 OFFCURVE",
"297 184 OFFCURVE",
"238 240 CURVE SMOOTH",
"179 296 OFFCURVE",
"152 343 OFFCURVE",
"134 401 CURVE SMOOTH",
"129 417 OFFCURVE",
"126 448 OFFCURVE",
"125 482 CURVE",
"219 482 OFFCURVE",
"254 416 OFFCURVE",
"274 415 CURVE",
"313 483 LINE",
"264 504 OFFCURVE",
"197 544 OFFCURVE",
"124 545 CURVE",
"124 614 OFFCURVE",
"127 681 OFFCURVE",
"127 700 CURVE",
"-46 700 LINE",
"-46 680 OFFCURVE",
"-45 608 OFFCURVE",
"-44 544 CURVE",
"-44 543 OFFCURVE",
"-180 568 OFFCURVE",
"-227 595 CURVE",
"-264 529 LINE",
"-146 493 OFFCURVE",
"-98 497 OFFCURVE",
"-43 481 CURVE"
);
}
);
visible = 1;
width = 429;
}
);
unicode = 0058;
},
{
glyphname = Y;
lastChange = "2017-11-28 10:44:51 +0000";
layers = (
{
layerId = "8163A9A7-FEB5-4584-B00B-7D9977804228";
paths = (
{
closed = 1;
nodes = (
"277 370 OFFCURVE",
"234 429 OFFCURVE",
"231 504 CURVE SMOOTH",
"227 616 OFFCURVE",
"206 700 OFFCURVE",
"206 700 CURVE",
"35 700 LINE",
"35 700 OFFCURVE",
"56 616 OFFCURVE",
"60 504 CURVE SMOOTH",
"63 429 OFFCURVE",
"108 371 OFFCURVE",
"123 345 CURVE SMOOTH",
"141 314 OFFCURVE",
"165 270 OFFCURVE",
"148 239 CURVE SMOOTH",
"121 189 OFFCURVE",
"131 40 OFFCURVE",
"130 0 CURVE",
"301 0 LINE",
"302 40 OFFCURVE",
"291 189 OFFCURVE",
"319 239 CURVE SMOOTH",
"343 282 OFFCURVE",
"371 289 OFFCURVE",
"371 320 CURVE",
"371 371 OFFCURVE",
"365 405 OFFCURVE",
"385 474 CURVE SMOOTH",
"417 583 OFFCURVE",
"425 651 OFFCURVE",
"425 700 CURVE",
"346 700 LINE",
"346 651 OFFCURVE",
"338 583 OFFCURVE",
"306 474 CURVE SMOOTH",
"289 416 OFFCURVE",
"291 383 OFFCURVE",
"292 344 CURVE"
);
}
);
width = 460;
},
{
associatedMasterId = "8163A9A7-FEB5-4584-B00B-7D9977804228";
layerId = "3EEC5ABD-2557-496E-919E-0B45202B3C91";
name = "Nov 28 17, 11:44";
paths = (
{
closed = 0;
nodes = (
"211 611 LINE",
"211 532 LINE SMOOTH",
"211 469 OFFCURVE",
"198 418 OFFCURVE",
"186 360 CURVE SMOOTH",
"174 302 OFFCURVE",
"214 258 OFFCURVE",
"214 222 CURVE SMOOTH",
"214 186 OFFCURVE",
"212 58 OFFCURVE",
"209 0 CURVE",
"37 0 LINE",
"40 58 OFFCURVE",
"42 186 OFFCURVE",
"42 222 CURVE SMOOTH",
"42 258 OFFCURVE",
"2 302 OFFCURVE",
"14 360 CURVE SMOOTH",
"26 418 OFFCURVE",
"39 469 OFFCURVE",
"39 532 CURVE SMOOTH",
"39 700 LINE",
"204 700 LINE"
);
}
);
visible = 1;
width = 368;
}
);
unicode = 0059;
},
{
glyphname = Z;
lastChange = "2017-11-28 13:10:26 +0000";
layers = (
{
layerId = "8163A9A7-FEB5-4584-B00B-7D9977804228";
paths = (
{
closed = 1;
nodes = (
"227 3 OFFCURVE",
"242 -12 OFFCURVE",
"209 28 CURVE SMOOTH",
"176 68 OFFCURVE",
"174 93 OFFCURVE",
"134 113 CURVE SMOOTH",
"94 133 OFFCURVE",
"85 98 OFFCURVE",
"48 131 CURVE SMOOTH",
"19 157 OFFCURVE",
"26 211 OFFCURVE",
"66 254 CURVE",
"90 276 OFFCURVE",
"176 373 OFFCURVE",
"204 400 CURVE",
"219 413 OFFCURVE",
"233 424 OFFCURVE",
"237 438 CURVE SMOOTH",
"241 453 OFFCURVE",
"226 457 OFFCURVE",
"185 476 CURVE SMOOTH",
"164 486 OFFCURVE",
"131 523 OFFCURVE",
"115 541 CURVE SMOOTH",
"90 569 OFFCURVE",
"50 609 OFFCURVE",
"50 649 CURVE",
"139 760 LINE",
"160 682 OFFCURVE",
"262 590 OFFCURVE",
"289 568 CURVE SMOOTH",
"306 554 OFFCURVE",
"342 531 OFFCURVE",
"346 507 CURVE SMOOTH",
"350 483 OFFCURVE",
"349 465 OFFCURVE",
"334 441 CURVE",
"282 377 LINE",
"258 346 OFFCURVE",
"191 267 OFFCURVE",
"200 236 CURVE SMOOTH",
"205 219 OFFCURVE",
"214 228 OFFCURVE",
"236 215 CURVE SMOOTH",
"258 202 OFFCURVE",
"289 159 OFFCURVE",
"307 130 CURVE SMOOTH",
"325 101 OFFCURVE",
"364 37 OFFCURVE",
"390 20 CURVE",
"242 -12 LINE"
);
}
);
width = 420;
},
{
associatedMasterId = "8163A9A7-FEB5-4584-B00B-7D9977804228";
layerId = "5E91F017-05EB-4905-85C7-665BA155855B";
name = "Nov 28 17, 14:09";
paths = (
{
closed = 1;
nodes = (
"209 -7 LINE",
"194 16 OFFCURVE",
"63 159 OFFCURVE",
"28 213 CURVE SMOOTH",
"-7 266 OFFCURVE",
"-36 300 OFFCURVE",
"-39 379 CURVE SMOOTH",
"-42 465 OFFCURVE",
"-38 593 OFFCURVE",
"-42 676 CURVE",
"113 703 LINE",
"117 619 OFFCURVE",
"114 491 OFFCURVE",
"116 405 CURVE SMOOTH",
"118 320 OFFCURVE",
"149 293 OFFCURVE",
"184 240 CURVE SMOOTH",
"219 187 OFFCURVE",
"349 42 OFFCURVE",
"365 19 CURVE"
);
},
{
closed = 1;
nodes = (
"6 70 LINE",
"21 223 OFFCURVE",
"68 163 OFFCURVE",
"165 367 CURVE SMOOTH",
"193 426 OFFCURVE",
"115 475 OFFCURVE",
"144 556 CURVE",
"210 706 LINE",
"294 658 LINE",
"228 509 LINE",
"199 428 OFFCURVE",
"277 379 OFFCURVE",
"249 320 CURVE SMOOTH",
"152 116 OFFCURVE",
"91 141 OFFCURVE",
"77 -12 CURVE"
);
}
);
visible = 1;
width = 382;
}
);
unicode = 005A;
},
